<?xml version="1.0" encoding="UTF-8" standalone="no" ?>
<!DOCTYPE svg PUBLIC "-//W3C//DTD SVG 1.1//EN" "http://www.w3.org/Graphics/SVG/1.1/DTD/svg11.dtd">
<svg xmlns="http://www.w3.org/2000/svg" xmlns:xlink="http://www.w3.org/1999/xlink" version="1.1" width="570.2323577880859" height="163.64000000000001" xml:space="preserve">
<desc>Created with Fabric.js 1.6.0-rc.1</desc>
<defs></defs>
  <g transform="translate(299.03 73.42) scale(1.54 1.54)">
   <text font-family="Masque" font-size="40" font-weight="normal" style="stroke: none; stroke-width: 1; stroke-dasharray: none; stroke-linecap: butt; stroke-linejoin: miter; stroke-miterlimit: 10; fill: #000000; fill-rule: nonzero; opacity: 1;" ><tspan x="-91.08" y="8.98" style="stroke: none; stroke-width: 0; stroke-dasharray: none; stroke-linecap: butt; stroke-linejoin: miter; stroke-miterlimit: 4; fill: #000000; fill-rule: ; opacity: 1;">f</tspan><tspan x="-65.24" y="8.98" style="stroke: none; stroke-width: 0; stroke-dasharray: none; stroke-linecap: butt; stroke-linejoin: miter; stroke-miterlimit: 4; fill: #000000; fill-rule: ; opacity: 1;">l</tspan><tspan x="-39.88" y="8.98" style="stroke: none; stroke-width: 0; stroke-dasharray: none; stroke-linecap: butt; stroke-linejoin: miter; stroke-miterlimit: 4; fill: #000000; fill-rule: ; opacity: 1;">i</tspan><tspan x="-25.68" y="8.98" style="stroke: none; stroke-width: 0; stroke-dasharray: none; stroke-linecap: butt; stroke-linejoin: miter; stroke-miterlimit: 4; fill: #000000; fill-rule: ; opacity: 1;">g</tspan><tspan x="4.16" y="8.98" style="stroke: none; stroke-width: 0; stroke-dasharray: none; stroke-linecap: butt; stroke-linejoin: miter; stroke-miterlimit: 4; fill: #000000; fill-rule: ; opacity: 1;">h</tspan><tspan x="35.36" y="8.98" style="stroke: none; stroke-width: 0; stroke-dasharray: none; stroke-linecap: butt; stroke-linejoin: miter; stroke-miterlimit: 4; fill: #000000; fill-rule: ; opacity: 1;">T</tspan><tspan x="62.28" y="8.98" style="stroke: none; stroke-width: 0; stroke-dasharray: none; stroke-linecap: butt; stroke-linejoin: miter; stroke-miterlimit: 4; fill: #000000; fill-rule: ; opacity: 1;">s</tspan></text>
 </g>
  <g transform="translate(357.84 115.65) scale(0.62 0.81)">
   <text font-family="ADAMCG PRO" font-size="40" font-weight="normal" style="stroke: none; stroke-width: 1; stroke-dasharray: none; stroke-linecap: butt; stroke-linejoin: miter; stroke-miterlimit: 10; fill: #000000; fill-rule: nonzero; opacity: 1;" ><tspan x="-326.27" y="8.98" style="stroke: none; stroke-width: 0; stroke-dasharray: none; stroke-linecap: butt; stroke-linejoin: miter; stroke-miterlimit: 4; fill: #000000; fill-rule: ; opacity: 1;">M</tspan><tspan x="-292.17" y="8.98" style="stroke: none; stroke-width: 0; stroke-dasharray: none; stroke-linecap: butt; stroke-linejoin: miter; stroke-miterlimit: 4; fill: #000000; fill-rule: ; opacity: 1;">a</tspan><tspan x="-264.38" y="8.98" style="stroke: none; stroke-width: 0; stroke-dasharray: none; stroke-linecap: butt; stroke-linejoin: miter; stroke-miterlimit: 4; fill: #000000; fill-rule: ; opacity: 1;">k</tspan><tspan x="-237.23" y="8.98" style="stroke: none; stroke-width: 0; stroke-dasharray: none; stroke-linecap: butt; stroke-linejoin: miter; stroke-miterlimit: 4; fill: #000000; fill-rule: ; opacity: 1;">e</tspan><tspan x="-213.96" y="8.98" style="stroke: none; stroke-width: 0; stroke-dasharray: none; stroke-linecap: butt; stroke-linejoin: miter; stroke-miterlimit: 4; fill: #000000; fill-rule: ; opacity: 1;"> </tspan><tspan x="-201.97" y="8.98" style="stroke: none; stroke-width: 0; stroke-dasharray: none; stroke-linecap: butt; stroke-linejoin: miter; stroke-miterlimit: 4; fill: #000000; fill-rule: ; opacity: 1;">i</tspan><tspan x="-191.19" y="8.98" style="stroke: none; stroke-width: 0; stroke-dasharray: none; stroke-linecap: butt; stroke-linejoin: miter; stroke-miterlimit: 4; fill: #000000; fill-rule: ; opacity: 1;">t</tspan><tspan x="-167.83" y="8.98" style="stroke: none; stroke-width: 0; stroke-dasharray: none; stroke-linecap: butt; stroke-linejoin: miter; stroke-miterlimit: 4; fill: #000000; fill-rule: ; opacity: 1;"> </tspan><tspan x="-155.84" y="8.98" style="stroke: none; stroke-width: 0; stroke-dasharray: none; stroke-linecap: butt; stroke-linejoin: miter; stroke-miterlimit: 4; fill: #000000; fill-rule: ; opacity: 1;">a</tspan><tspan x="-128.05" y="8.98" style="stroke: none; stroke-width: 0; stroke-dasharray: none; stroke-linecap: butt; stroke-linejoin: miter; stroke-miterlimit: 4; fill: #000000; fill-rule: ; opacity: 1;"> </tspan><tspan x="-116.05" y="8.98" style="stroke: none; stroke-width: 0; stroke-dasharray: none; stroke-linecap: butt; stroke-linejoin: miter; stroke-miterlimit: 4; fill: #000000; fill-rule: ; opacity: 1;">m</tspan><tspan x="-81.95" y="8.98" style="stroke: none; stroke-width: 0; stroke-dasharray: none; stroke-linecap: butt; stroke-linejoin: miter; stroke-miterlimit: 4; fill: #000000; fill-rule: ; opacity: 1;">e</tspan><tspan x="-58.69" y="8.98" style="stroke: none; stroke-width: 0; stroke-dasharray: none; stroke-linecap: butt; stroke-linejoin: miter; stroke-miterlimit: 4; fill: #000000; fill-rule: ; opacity: 1;">m</tspan><tspan x="-24.59" y="8.98" style="stroke: none; stroke-width: 0; stroke-dasharray: none; stroke-linecap: butt; stroke-linejoin: miter; stroke-miterlimit: 4; fill: #000000; fill-rule: ; opacity: 1;">o</tspan><tspan x="9.36" y="8.98" style="stroke: none; stroke-width: 0; stroke-dasharray: none; stroke-linecap: butt; stroke-linejoin: miter; stroke-miterlimit: 4; fill: #000000; fill-rule: ; opacity: 1;">r</tspan><tspan x="34.98" y="8.98" style="stroke: none; stroke-width: 0; stroke-dasharray: none; stroke-linecap: butt; stroke-linejoin: miter; stroke-miterlimit: 4; fill: #000000; fill-rule: ; opacity: 1;">a</tspan><tspan x="62.77" y="8.98" style="stroke: none; stroke-width: 0; stroke-dasharray: none; stroke-linecap: butt; stroke-linejoin: miter; stroke-miterlimit: 4; fill: #000000; fill-rule: ; opacity: 1;">b</tspan><tspan x="86.29" y="8.98" style="stroke: none; stroke-width: 0; stroke-dasharray: none; stroke-linecap: butt; stroke-linejoin: miter; stroke-miterlimit: 4; fill: #000000; fill-rule: ; opacity: 1;">l</tspan><tspan x="106.72" y="8.98" style="stroke: none; stroke-width: 0; stroke-dasharray: none; stroke-linecap: butt; stroke-linejoin: miter; stroke-miterlimit: 4; fill: #000000; fill-rule: ; opacity: 1;">e</tspan><tspan x="129.98" y="8.98" style="stroke: none; stroke-width: 0; stroke-dasharray: none; stroke-linecap: butt; stroke-linejoin: miter; stroke-miterlimit: 4; fill: #000000; fill-rule: ; opacity: 1;"> </tspan><tspan x="141.97" y="8.98" style="stroke: none; stroke-width: 0; stroke-dasharray: none; stroke-linecap: butt; stroke-linejoin: miter; stroke-miterlimit: 4; fill: #000000; fill-rule: ; opacity: 1;">j</tspan><tspan x="158.77" y="8.98" style="stroke: none; stroke-width: 0; stroke-dasharray: none; stroke-linecap: butt; stroke-linejoin: miter; stroke-miterlimit: 4; fill: #000000; fill-rule: ; opacity: 1;">o</tspan><tspan x="192.71" y="8.98" style="stroke: none; stroke-width: 0; stroke-dasharray: none; stroke-linecap: butt; stroke-linejoin: miter; stroke-miterlimit: 4; fill: #000000; fill-rule: ; opacity: 1;">u</tspan><tspan x="220.35" y="8.98" style="stroke: none; stroke-width: 0; stroke-dasharray: none; stroke-linecap: butt; stroke-linejoin: miter; stroke-miterlimit: 4; fill: #000000; fill-rule: ; opacity: 1;">r</tspan><tspan x="245.98" y="8.98" style="stroke: none; stroke-width: 0; stroke-dasharray: none; stroke-linecap: butt; stroke-linejoin: miter; stroke-miterlimit: 4; fill: #000000; fill-rule: ; opacity: 1;">n</tspan><tspan x="275.49" y="8.98" style="stroke: none; stroke-width: 0; stroke-dasharray: none; stroke-linecap: butt; stroke-linejoin: miter; stroke-miterlimit: 4; fill: #000000; fill-rule: ; opacity: 1;">e</tspan><tspan x="298.75" y="8.98" style="stroke: none; stroke-width: 0; stroke-dasharray: none; stroke-linecap: butt; stroke-linejoin: miter; stroke-miterlimit: 4; fill: #000000; fill-rule: ; opacity: 1;">y</tspan></text>
 </g>
  <g transform="translate(503.52 58.62) scale(1.82 1.82)">
   <text font-family="Amerika Sans" font-size="40" font-weight="normal" style="stroke: none; stroke-width: 1; stroke-dasharray: none; stroke-linecap: butt; stroke-linejoin: miter; stroke-miterlimit: 10; fill: #ff0000; fill-rule: nonzero; opacity: 1;" ><tspan x="-31.66" y="8.98" style="stroke: none; stroke-width: 0; stroke-dasharray: none; stroke-linecap: butt; stroke-linejoin: miter; stroke-miterlimit: 4; fill: #ff0000; fill-rule: ; opacity: 1;">p</tspan><tspan x="-7.9" y="8.98" style="stroke: none; stroke-width: 0; stroke-dasharray: none; stroke-linecap: butt; stroke-linejoin: miter; stroke-miterlimit: 4; fill: #ff0000; fill-rule: ; opacity: 1;">r</tspan><tspan x="7.86" y="8.98" style="stroke: none; stroke-width: 0; stroke-dasharray: none; stroke-linecap: butt; stroke-linejoin: miter; stroke-miterlimit: 4; fill: #ff0000; fill-rule: ; opacity: 1;">o</tspan></text>
 </g>
<g style="stroke: none; stroke-width: 1; stroke-dasharray: none; stroke-linecap: butt; stroke-linejoin: miter; stroke-miterlimit: 10; fill: none; fill-rule: nonzero; opacity: 1;" transform="translate(10 10) scale(0.54 0.54)" >
  <path d="M 1760 254 L 1190 895 L 1630 155 L 1160 878 L 1480 78.6 L 1130 865 L 1320 26.6 L 1100 857 L 1150 0.18 L 1070 855 L 983 0 L 1030 857 L 817 26 L 1000 865 L 657 77.7 L 970 877 L 508 154 L 942 895 L 372 252 L 916 916 L 254 370 L 895 941 L 155 506 L 878 969 L 78.6 655 L 865 1000 L 26.6 815 L 857 1030 L 0.176 980 L 855 1070 L 0 1150 L 857 1100 L 26 1310 L 865 1130 L 77.7 1470 L 877 1160 l -723 460 l 741 -430 l -643 570 l 664 -550 l -546 670 l 571 -640 l -435 740 l 463 -730 l -314 800 l 345 -780 l -185 830 l 215 -830 l -50 860 l 90 -850 l 80 850 l -50 -860 l 210 840 l -180 -840 l 340 780 l -310 -800 l 460 730 l -430 -740 l 570 640 l -550 -660 l 670 540 l -640 -570 l 740 440 l -730 -470 l 800 320 l -780 -350 l 830 190 l -830 -220 l 860 50 l -850 -80 l 850 -87 l -860 47 l 840 -213 l -840 183 l 780 -343 l -800 313 l 730 -462 l -740 434 l 640 -570 l -660 544 l 540 -662" style="stroke: none; stroke-width: 1; stroke-dasharray: none; stroke-linecap: butt; stroke-linejoin: miter; stroke-miterlimit: 10; fill: #334647; fill-rule: nonzero; opacity: 0;" transform=" matrix(0.125 0 0 -0.125 0 266) " stroke-linecap="round" />
  <path d="m 1930 1070 c -10 50 -100 80 -280 80 c 0 0 -230 0 -230 0 c -10 0 -70 90 -80 100 c -30 40 -60 70 -90 110 c 40 0 130 0 100 70 c -20 20 -60 30 -90 30 c -10 0 -80 -10 -80 0 c 0 0 -110 140 -110 140 c 40 0 130 0 100 70 c -20 30 -50 30 -80 30 c -20 0 -90 -10 -95 0 c -121 170 -197 250 -229 250 c -116 0 -45 -120 -16 -170 c 21 -30 40 -70 58 -100 c 48 -100 93 -190 134 -290 c 25 -60 68 -130 68 -200 c 0 -10 -10 -20 -25 -30 c -16 0 -82 0 -199 -10 c -116 0 -218 -10 -306 -20 c -23 -10 -125 170 -151 180 c -11 10 -131 60 -131 20 c 0 -40 30 -120 90 -260 c -60 -144 -90 -234 -90 -272 c 0 -33 120 11 131 19 c 26 18 128 193 151 183 c 88 -13 190 -22 306 -23 c 117 -1 183 -5 199 -10 c 15 -5 25 -14 25 -27 c 0 -65 -43 -139 -68 -197 C 901 645 856 548 808 453 C 790 418 771 383 750 349 C 721 301 650 185 766 185 c 32 0 108 81 229 242 c 5 9 75 -1 95 0 c 30 0 60 1 80 34 c 30 67 -60 68 -100 68 c 0 0 110 143 110 144 c 0 7 70 -1 80 -1 c 30 1 70 4 90 33 c 30 62 -60 70 -100 69 c 30 35 60 70 90 105 c 10 13 70 99 80 99 c 0 0 230 0 230 0 c 180 0 270 32 280 82 l 0 10" style="stroke: none; stroke-width: 1; stroke-dasharray: none; stroke-linecap: butt; stroke-linejoin: miter; stroke-miterlimit: 10; fill: #ff0000; fill-rule: evenodd; opacity: 1;" transform=" matrix(0.125 0 0 -0.125 0 266) " stroke-linecap="round" />
</g>
</svg>